<?xml version="1.0" standalone="no"?>
<!DOCTYPE svg PUBLIC "-//W3C//DTD SVG 20010904//EN"
 "http://www.w3.org/TR/2001/REC-SVG-20010904/DTD/svg10.dtd">
<svg version="1.0" xmlns="http://www.w3.org/2000/svg"
 width="4674.000000pt" height="4674.000000pt" viewBox="0 0 4674.000000 4674.000000"
 preserveAspectRatio="xMidYMid meet">
<metadata>
Created by potrace 1.11, written by Peter Selinger 2001-2013
</metadata>
<g transform="translate(0.000000,4674.000000) scale(0.100000,-0.100000)"
fill="#000000" stroke="none">
<path d="M19335 46184 c-846 -42 -1740 -150 -2462 -299 -748 -154 -1665 -445
-2428 -770 -776 -331 -1163 -551 -1444 -820 -167 -160 -263 -304 -302 -452
-25 -94 -30 -313 -10 -438 36 -225 140 -428 313 -611 319 -336 736 -467 1233
-386 194 32 461 60 830 89 317 24 379 25 1610 35 1331 10 2154 6 2505 -12 667
-33 926 -59 1340 -136 720 -133 1224 -327 1494 -575 l50 -46 -26 -44 c-50 -83
-385 -392 -958 -884 -774 -664 -856 -713 -1340 -814 -360 -75 -482 -135 -692
-339 -124 -120 -219 -240 -378 -472 -314 -459 -546 -735 -790 -939 -237 -198
-418 -317 -684 -447 -197 -97 -318 -124 -400 -90 -86 36 -196 174 -316 397
-262 486 -394 691 -596 929 -255 301 -589 546 -874 643 -356 121 -918 92
-1272 -66 -232 -104 -446 -324 -585 -602 -165 -327 -243 -596 -307 -1050 -62
-440 -76 -667 -76 -1290 0 -555 -9 -761 -50 -1230 -82 -939 -66 -1157 109
-1520 32 -66 98 -187 146 -270 192 -325 238 -420 271 -562 50 -214 -28 -618
-171 -890 -130 -247 -255 -433 -560 -833 -514 -675 -786 -1110 -979 -1568
-182 -433 -283 -863 -336 -1429 -60 -653 -27 -1129 134 -1933 85 -420 91 -594
32 -835 -33 -133 -75 -241 -184 -470 -237 -499 -270 -612 -279 -950 -10 -370
70 -1034 173 -1446 114 -455 311 -900 626 -1417 171 -280 314 -479 607 -846
196 -245 248 -318 339 -476 169 -295 212 -469 341 -1376 l50 -350 10 -455 c6
-250 13 -487 15 -526 l4 -73 -2904 -2 -2905 -3 822 -765 c452 -421 1078 -1004
1392 -1295 l569 -531 423 -1384 c233 -762 696 -2280 1030 -3375 334 -1094 791
-2591 1015 -3325 l407 -1335 -247 -5 -248 -5 827 -2602 c454 -1431 829 -2599
832 -2595 3 4 316 973 695 2155 l689 2147 8875 -1 8875 0 1980 -2069 c1089
-1138 2019 -2111 2067 -2162 l88 -93 0 2613 0 2612 -295 0 -295 0 0 4265 0
4265 1424 0 c784 0 1427 3 1429 8 2 4 2 789 -1 1745 l-5 1737 -2567 0 -2567 0
-154 153 c-85 83 -182 187 -217 230 -171 214 -450 791 -532 1101 -34 129 -72
334 -92 491 -21 172 -17 718 5 865 74 474 286 942 638 1413 242 323 562 676
771 850 104 86 240 166 543 319 200 101 347 160 495 201 l115 31 355 -5 c520
-6 873 -3 996 10 345 37 671 148 888 303 120 85 286 245 400 387 138 170 499
670 587 813 229 369 511 921 654 1283 189 477 235 740 235 1344 0 284 -6 420
-45 1011 -14 206 -45 699 -70 1095 -25 396 -50 783 -55 860 -6 77 -26 401 -45
720 -80 1336 -144 1920 -237 2183 -67 191 -125 268 -460 609 -228 233 -275
286 -419 480 -267 358 -372 520 -452 698 -56 126 -70 163 -167 471 -217 683
-404 1135 -612 1481 -93 155 -407 625 -525 786 -228 312 -747 938 -1054 1273
-356 387 -880 937 -1153 1210 -459 458 -651 632 -1406 1274 -452 383 -1172
1148 -1686 1790 -374 467 -590 637 -1253 990 -676 359 -1228 583 -1966 795
-579 167 -1065 274 -2405 530 -579 111 -892 175 -1395 285 -834 183 -1113 233
-1950 349 -997 139 -1304 171 -2290 242 -272 19 -979 33 -1180 23z m195 -1034
c758 -35 1708 -148 2905 -345 765 -126 1858 -369 2695 -600 449 -124 1425
-375 1633 -420 48 -11 76 -22 74 -29 -2 -6 -37 -22 -78 -34 -222 -70 -439
-167 -581 -260 l-77 -51 -248 84 c-438 149 -1089 344 -1463 439 -431 109 -724
167 -1190 235 -569 83 -816 111 -1580 176 -1187 101 -1749 132 -2077 115 -353
-19 -550 -58 -869 -175 -418 -152 -565 -230 -836 -440 -101 -78 -201 -148
-223 -155 -47 -15 -365 -9 -727 15 -123 8 -295 20 -383 25 -252 17 -966 24
-1165 11 -352 -22 -536 -78 -758 -229 l-95 -65 -231 6 c-221 5 -471 28 -502
45 -17 9 174 162 387 309 439 304 686 424 1354 661 1044 370 1780 543 2715
636 512 52 905 65 1320 46z m855 -913 l160 -12 275 -129 c151 -71 394 -188
540 -261 555 -277 796 -387 1300 -590 465 -188 697 -272 1280 -466 653 -217
821 -277 1019 -363 84 -37 176 -73 205 -81 28 -7 50 -18 48 -25 -7 -30 -157
-250 -181 -264 -21 -14 -739 242 -1261 449 -708 281 -1840 608 -2850 824 -265
56 -989 184 -1306 230 -396 58 -1135 124 -1578 141 -137 5 -251 12 -253 14
-11 10 353 215 466 262 134 57 606 203 756 234 83 18 281 44 400 54 99 8 824
-5 980 -17z m1130 -87 c695 -58 901 -78 1265 -126 598 -78 1172 -179 1980
-350 195 -41 544 -113 775 -160 398 -80 526 -110 524 -123 0 -3 -26 -25 -58
-48 -94 -69 -236 -199 -310 -284 -108 -125 -174 -226 -296 -452 -31 -57 -145
-217 -155 -217 -5 0 -143 62 -307 139 -449 209 -816 362 -1558 651 -482 188
-1232 491 -1530 617 -382 164 -635 264 -870 348 -88 31 -161 58 -163 60 -2 2
20 2 49 -1 30 -3 324 -27 654 -54z m6375 -380 c332 -24 614 -95 890 -226 157
-75 237 -127 360 -233 136 -118 178 -138 305 -151 55 -5 135 -10 179 -10 99 0
259 -24 385 -56 275 -72 684 -278 964 -487 320 -238 524 -474 1030 -1192 331
-469 566 -759 893 -1099 301 -314 586 -585 884 -841 177 -152 790 -765 912
-912 88 -105 193 -251 398 -553 84 -124 166 -242 182 -262 l29 -37 -99 -50
c-372 -187 -774 -487 -1027 -767 -208 -230 -324 -412 -540 -844 -188 -375
-352 -860 -445 -1315 -22 -111 -53 -227 -73 -280 -19 -49 -116 -327 -216 -618
-99 -290 -204 -589 -232 -665 -139 -372 -313 -700 -513 -970 -157 -211 -454
-482 -686 -625 -211 -129 -628 -300 -998 -406 -254 -74 -814 -210 -1547 -376
-110 -25 -308 -74 -440 -110 -132 -35 -271 -69 -310 -75 -38 -6 -113 -22 -165
-35 -88 -22 -212 -46 -304 -59 l-39 -5 7 68 c8 88 42 199 69 230 12 12 80 52
151 88 175 88 286 158 671 423 371 256 571 386 890 580 508 308 628 404 961
767 76 83 162 169 189 191 28 22 138 90 245 152 301 174 861 525 1060 664 389
271 538 413 717 681 180 270 230 392 392 960 107 372 181 565 341 885 80 159
148 265 308 478 65 86 149 200 187 252 171 238 491 589 613 674 45 31 218 79
397 111 109 19 135 31 113 50 -20 18 -367 172 -512 227 -236 90 -578 179 -901
232 -238 40 -800 113 -1040 136 -546 50 -2193 160 -2855 190 -626 29 -2196 22
-2404 -10 -77 -12 -138 -53 -270 -179 -126 -120 -166 -151 -212 -161 -23 -5
-111 -1 -238 11 -313 29 -463 22 -614 -31 -237 -83 -445 -373 -591 -823 -80
-245 -104 -390 -126 -744 -10 -164 -25 -312 -44 -425 -44 -260 -55 -391 -48
-578 9 -261 56 -506 168 -883 85 -285 161 -481 329 -852 133 -294 213 -452
388 -765 105 -188 163 -289 429 -744 51 -88 98 -175 104 -195 6 -20 34 -85 61
-146 98 -217 211 -548 228 -665 7 -51 7 -84 -1 -112 l-10 -41 -58 6 c-77 7
-158 49 -278 146 -137 110 -155 132 -294 341 -67 102 -161 237 -208 300 -47
63 -221 340 -387 615 -413 687 -597 971 -893 1380 -177 244 -200 274 -361 450
-271 298 -488 480 -740 623 -70 39 -227 92 -274 92 -77 0 -126 -53 -111 -122
14 -65 31 -91 249 -398 34 -47 112 -148 175 -225 205 -251 1053 -1234 1276
-1480 810 -891 1043 -1203 1538 -2056 230 -396 408 -655 522 -757 29 -26 62
-65 73 -87 36 -72 92 -245 142 -439 27 -103 57 -197 66 -207 23 -25 74 -24
102 2 27 25 82 133 196 389 82 183 91 197 137 233 94 73 200 242 215 344 8 54
10 55 199 106 169 47 298 70 337 62 30 -7 30 -8 22 -49 -5 -22 -9 -69 -9 -103
0 -52 4 -66 25 -88 50 -54 169 -97 390 -140 257 -51 537 -185 704 -337 316
-287 518 -626 591 -992 51 -257 55 -450 22 -1106 -14 -272 -22 -303 -89 -353
-50 -37 -91 -46 -228 -48 l-125 -2 -73 37 c-118 59 -197 143 -243 257 -20 48
-24 86 -35 360 -13 307 -37 565 -73 779 -61 360 -103 586 -114 609 -12 25 -17
26 -82 25 -57 -1 -101 -11 -237 -57 -301 -101 -430 -176 -598 -346 -164 -166
-242 -318 -275 -537 -18 -117 -19 -196 -4 -334 5 -57 7 -116 3 -133 -8 -38
-62 -97 -194 -210 -58 -50 -132 -116 -165 -147 -53 -50 -69 -59 -140 -78 -122
-33 -255 -44 -447 -40 -152 4 -184 8 -263 32 -238 72 -426 219 -520 407 -80
158 -116 381 -81 501 38 131 85 147 363 129 174 -12 183 -12 227 7 49 22 76
61 76 112 0 39 -82 212 -184 389 -285 494 -612 839 -1381 1459 -530 426 -627
513 -709 637 -61 91 -138 244 -134 267 3 22 6 23 113 22 103 -2 125 -6 320
-62 323 -92 402 -99 435 -37 20 38 6 88 -64 230 -49 97 -103 181 -212 330
-266 363 -370 474 -787 838 -374 327 -458 395 -842 682 -466 348 -607 446
-925 645 -704 442 -1126 640 -1782 839 -437 132 -872 171 -1238 111 -309 -51
-597 -153 -857 -305 -191 -112 -316 -208 -603 -465 -204 -181 -293 -256 -485
-407 -256 -200 -284 -213 -377 -171 -104 48 -101 43 -105 224 -4 144 -2 168
20 254 66 255 179 445 347 587 82 69 301 178 615 307 127 51 344 144 483 205
512 225 1103 448 1372 516 532 135 1071 117 1527 -50 168 -62 506 -235 632
-323 143 -100 165 -99 116 6 -54 116 -202 323 -325 454 -239 256 -644 478
-1020 559 -138 30 -423 33 -570 6 -290 -54 -591 -162 -937 -339 -183 -93 -331
-181 -621 -370 -262 -171 -406 -254 -560 -323 -232 -105 -204 -100 -557 -99
-237 0 -364 5 -540 22 -126 12 -263 25 -303 28 -40 4 -75 10 -78 15 -8 13 29
78 95 167 91 122 329 390 426 478 232 211 718 562 974 704 133 73 189 97 333
141 170 52 386 133 478 179 41 21 140 77 220 124 266 159 577 307 725 345 278
73 601 45 994 -85 258 -86 653 -261 855 -378 105 -61 443 -293 492 -337 24
-22 54 -25 54 -5 0 29 -263 326 -396 448 -291 267 -496 422 -739 560 -313 178
-535 248 -782 248 -208 0 -364 -31 -672 -132 -171 -56 -171 -56 -171 22 0 103
64 265 157 398 73 105 402 428 504 495 219 144 575 272 689 246 53 -12 156
-66 288 -152 103 -66 546 -411 752 -586 247 -209 887 -858 1225 -1241 60 -69
168 -190 240 -270 244 -270 574 -677 727 -897 145 -206 385 -599 488 -797 56
-109 73 -129 83 -104 8 22 -83 233 -191 441 -199 387 -416 728 -632 997 -74
91 -226 280 -340 420 -227 281 -346 440 -384 516 -42 81 -59 212 -53 409 12
412 135 764 381 1092 285 380 642 569 1201 637 362 44 688 59 1199 57 248 -1
463 1 478 5 23 4 28 11 26 27 -9 61 -497 161 -1033 213 -218 21 -636 24 -810
5 -469 -50 -816 -183 -1145 -440 -153 -119 -373 -314 -546 -483 -95 -93 -173
-160 -189 -164 -23 -6 -34 0 -77 42 -56 55 -180 236 -239 353 -79 154 -149
417 -169 640 -14 152 -2 292 39 454 94 372 260 575 726 884 620 412 1198 666
2150 944 548 160 857 253 1087 329 393 127 645 197 863 240 158 31 177 37 173
63 -6 42 -201 98 -458 133 -294 41 -728 9 -1124 -82 -60 -14 -110 -23 -112
-21 -9 9 175 224 272 317 255 246 666 507 1014 643 294 115 442 156 615 170
92 8 340 6 475 -3z m-5972 -4018 c7 -42 30 -142 52 -222 61 -221 91 -485 70
-615 -17 -109 -88 -324 -115 -351 -13 -13 -30 -24 -37 -24 -30 1 -135 52 -240
117 -62 39 -145 88 -184 111 -139 81 -204 186 -204 330 1 147 40 266 122 364
45 54 189 172 299 246 86 58 199 122 214 122 6 0 16 -35 23 -78z m-7305 -1152
c123 -188 200 -290 366 -483 152 -177 216 -269 290 -420 89 -179 122 -358 101
-544 -15 -135 -39 -220 -112 -388 -77 -179 -96 -232 -103 -303 -10 -88 9 -176
59 -277 54 -107 109 -173 278 -328 174 -161 250 -245 326 -361 154 -233 189
-467 108 -711 -65 -194 -221 -462 -335 -575 -90 -90 -210 -134 -456 -166 -335
-44 -620 67 -901 353 -260 263 -360 561 -285 843 27 101 95 247 218 465 224
398 299 595 310 827 11 210 -18 345 -137 648 -109 277 -115 308 -114 545 0
144 5 226 18 295 23 127 87 383 124 495 58 176 72 205 105 226 17 10 34 15 38
11 4 -4 49 -72 102 -152z m13372 -675 c14 -46 31 -88 39 -92 7 -4 75 -109 151
-233 242 -394 321 -505 511 -715 253 -280 511 -529 749 -722 180 -145 195
-169 195 -298 0 -126 -44 -427 -70 -474 -17 -32 -87 -42 -335 -48 -273 -6
-353 2 -431 46 -197 113 -704 738 -874 1079 -81 163 -145 332 -166 437 -24
119 -24 363 0 495 35 197 172 610 202 610 1 0 14 -38 29 -85z m7131 -517 c111
-115 238 -261 490 -558 137 -162 278 -328 313 -370 111 -132 729 -963 962
-1295 760 -1081 750 -1067 1094 -1659 219 -379 349 -596 479 -800 31 -49 56
-92 56 -95 0 -3 -28 -37 -61 -76 -34 -38 -146 -183 -251 -322 l-189 -251 -97
-7 c-53 -4 -157 -13 -230 -21 -74 -8 -189 -14 -256 -14 -68 0 -158 -4 -202 -9
-110 -13 -553 -35 -560 -28 -4 3 5 68 20 144 61 322 81 608 73 1023 -11 498
-63 856 -192 1306 -62 216 -104 324 -210 539 -147 300 -253 468 -449 715 -309
389 -502 565 -930 849 -131 87 -367 197 -561 261 -55 18 -102 34 -104 36 -13
12 220 264 356 386 134 120 364 307 378 308 6 0 38 -28 71 -62z m-763 -689
c151 -50 418 -211 619 -374 309 -249 447 -388 659 -665 256 -334 391 -546 543
-850 165 -331 296 -795 351 -1245 47 -384 46 -1015 -2 -1445 -10 -85 -18 -194
-18 -242 0 -82 2 -89 28 -115 27 -27 30 -28 135 -27 76 1 213 17 475 57 322
50 779 98 793 84 2 -2 -61 -76 -142 -163 -80 -87 -253 -283 -384 -434 -130
-151 -309 -356 -396 -455 -209 -237 -616 -724 -836 -1001 -96 -121 -223 -275
-281 -341 l-105 -120 -89 -12 c-121 -15 -178 -14 -193 3 -18 23 -46 182 -95
541 -80 591 -148 972 -265 1480 -77 332 -141 558 -256 903 -256 766 -420 1109
-750 1572 -204 287 -519 635 -791 875 -15 12 42 191 167 525 141 378 238 589
475 1030 103 194 264 440 287 440 5 0 37 -9 71 -21z m-1767 -1456 c-176 -417
-414 -577 -986 -664 -90 -14 -196 -22 -280 -23 -124 -1 -139 1 -180 23 -48 25
-290 260 -290 282 0 22 79 144 139 216 77 92 85 94 299 80 132 -8 223 -8 393
2 276 15 369 29 589 88 96 25 198 51 225 57 28 7 68 21 90 33 22 12 42 20 43
18 2 -2 -17 -52 -42 -112z m-16362 -698 c80 -26 165 -75 203 -116 97 -107 186
-352 233 -645 46 -282 70 -337 218 -489 53 -55 119 -119 147 -142 l49 -42 -49
-43 c-158 -136 -368 -360 -481 -511 -170 -228 -405 -590 -504 -776 -41 -77
-78 -141 -82 -141 -16 0 -113 87 -164 148 -85 103 -157 225 -287 487 -138 277
-188 354 -301 463 -128 123 -194 162 -437 257 -308 122 -379 168 -468 301 -64
95 -96 193 -96 294 1 158 81 230 309 277 84 17 86 17 153 -4 141 -45 309 -61
453 -44 225 27 413 79 511 141 115 74 267 273 384 503 l60 118 36 -5 c19 -3
70 -17 113 -31z m4063 -241 c65 -32 174 -133 523 -484 428 -431 487 -465 1159
-674 380 -119 453 -146 636 -236 385 -189 674 -441 980 -854 101 -138 140
-203 206 -342 40 -86 169 -438 169 -462 0 -3 -23 28 -51 68 -101 144 -214 233
-454 359 -235 124 -432 240 -690 408 -551 358 -922 582 -1345 810 -713 386
-1107 525 -1397 492 -229 -25 -491 -158 -968 -490 -455 -318 -558 -380 -719
-434 -214 -72 -331 16 -422 320 -24 81 -27 107 -28 250 -1 199 7 220 127 340
86 85 333 256 585 405 138 81 535 276 687 338 176 71 408 135 680 186 178 33
256 33 322 0z m-2576 -1020 c19 -259 5 -483 -71 -1099 -50 -409 -67 -571 -82
-799 -17 -261 -12 -288 102 -525 107 -224 138 -307 179 -472 42 -168 61 -319
68 -539 5 -151 3 -201 -11 -270 -31 -157 -95 -255 -220 -340 -121 -81 -167
-137 -252 -301 -83 -163 -134 -229 -324 -420 -116 -117 -232 -210 -305 -247
-22 -11 -80 -30 -130 -42 -79 -20 -107 -22 -235 -17 -221 8 -334 42 -500 152
-36 24 -87 65 -114 92 -104 102 -146 173 -266 453 -90 212 -145 300 -270 435
-161 174 -200 251 -222 436 -9 78 -9 119 0 185 44 304 230 506 492 536 181 20
245 51 281 133 10 22 37 121 59 219 70 299 121 432 327 839 80 158 375 656
492 831 177 263 477 599 656 733 95 71 316 196 328 184 4 -4 12 -75 18 -157z
m2297 -505 c267 -29 521 -94 987 -254 421 -144 755 -233 1072 -284 l112 -18
286 -162 c400 -226 578 -320 738 -387 l138 -58 113 -136 c151 -180 251 -319
417 -581 76 -121 161 -253 189 -294 164 -243 401 -486 840 -860 375 -319 501
-443 548 -535 50 -100 67 -190 133 -690 78 -595 80 -695 17 -791 -29 -43 -105
-81 -175 -87 -63 -5 -55 -10 -306 177 -347 258 -402 349 -488 810 -97 518
-187 752 -382 1000 -85 107 -344 363 -522 516 -82 71 -222 193 -310 271 -88
78 -209 184 -269 235 l-109 94 -27 110 c-15 61 -40 144 -55 185 -55 152 -198
413 -263 483 -39 41 -67 35 -182 -40 l-103 -67 -241 82 c-436 148 -534 164
-1016 167 -227 2 -361 7 -390 15 -110 29 -310 98 -481 166 -103 41 -198 74
-213 74 -14 0 -35 -9 -46 -20 -19 -19 -20 -32 -18 -158 2 -111 -1 -148 -16
-194 -10 -32 -22 -58 -25 -58 -3 0 -65 -32 -136 -71 -375 -205 -498 -256 -684
-284 -99 -15 -258 -19 -323 -9 -34 6 -38 10 -38 38 0 56 -28 165 -59 229 -79
165 -288 379 -578 592 -49 36 -84 69 -88 83 -9 34 23 92 71 128 35 26 55 32
115 38 152 15 336 94 556 239 160 104 190 119 378 180 355 116 597 152 833
126z m-5035 -233 c71 -29 143 -148 173 -285 45 -201 -30 -524 -161 -696 -94
-123 -164 -191 -257 -248 -131 -81 -320 -235 -331 -270 -21 -64 39 -101 273
-167 80 -23 175 -50 211 -61 73 -21 151 -69 183 -112 18 -24 21 -43 21 -115 0
-95 5 -83 -91 -225 -99 -146 -151 -346 -141 -542 3 -61 9 -118 12 -126 4 -10
-39 -43 -150 -114 -158 -101 -395 -271 -584 -419 -442 -345 -812 -876 -967
-1388 -105 -349 -83 -742 69 -1223 58 -184 65 -200 86 -200 20 0 27 11 51 75
15 41 59 138 97 215 88 175 149 336 208 552 135 490 227 776 311 967 85 194
239 451 339 563 80 91 220 139 276 94 46 -36 79 -124 100 -261 10 -69 25 -147
34 -175 13 -42 14 -74 5 -220 -23 -371 -103 -969 -176 -1320 -36 -171 -105
-436 -157 -604 -43 -139 -44 -143 -19 -110 123 158 180 204 336 273 60 26 121
50 136 52 26 6 27 4 39 -58 16 -86 75 -272 111 -354 17 -37 35 -97 40 -135 14
-99 34 -149 112 -293 39 -70 82 -155 96 -189 80 -198 64 -483 -39 -695 -36
-73 -132 -198 -184 -237 -19 -15 -33 -30 -31 -33 8 -7 86 42 161 102 41 33
128 86 210 126 77 39 176 96 220 128 69 49 85 67 113 122 18 36 38 93 44 127
l12 63 61 -118 c104 -199 228 -382 395 -587 48 -58 57 -75 54 -100 -32 -239
-99 -700 -114 -783 -26 -146 -70 -290 -134 -436 -75 -173 -132 -264 -269 -428
-275 -329 -296 -384 -318 -851 -29 -587 55 -1282 281 -2342 162 -762 196 -957
290 -1703 28 -221 57 -437 65 -480 7 -42 12 -78 12 -78 -1 -1 -367 -4 -813 -6
l-811 -5 -7 281 c-19 791 -37 1162 -101 2056 -101 1416 -154 2292 -175 2895
-19 563 -55 1186 -110 1924 -26 342 -27 779 -4 957 16 115 16 125 0 149 -21
31 -34 31 -95 0 -104 -52 -326 -259 -467 -435 -304 -377 -470 -716 -519 -1055
-37 -255 -10 -449 132 -965 143 -519 207 -823 215 -1013 l4 -99 -46 7 c-246
35 -491 161 -657 339 -178 190 -340 513 -409 817 -80 355 -89 591 -34 875 61
312 155 524 438 986 218 355 264 454 332 712 41 157 53 267 47 431 -5 149 -21
241 -64 370 -47 144 -102 239 -262 455 -135 181 -240 424 -292 675 -29 138
-31 376 -5 495 45 206 132 407 259 597 36 54 147 197 248 317 341 405 387 472
397 575 6 67 -17 111 -92 170 -75 60 -158 147 -178 187 -42 82 -29 159 43 270
93 143 241 266 424 354 92 44 275 102 321 101 24 0 44 11 85 50 l54 50 -58
-32 c-32 -17 -60 -30 -62 -27 -2 2 -21 58 -41 123 -91 294 -86 271 -81 390 5
124 26 196 103 346 135 262 441 605 694 776 74 51 173 123 220 161 47 38 92
71 100 75 28 11 121 7 153 -7z m23947 -158 c47 -62 137 -173 200 -248 63 -74
139 -167 168 -206 51 -70 52 -73 52 -140 l0 -69 -167 -165 c-91 -91 -298 -307
-459 -480 -162 -173 -371 -396 -466 -495 -95 -99 -320 -342 -499 -540 -179
-198 -397 -436 -484 -530 -491 -527 -780 -847 -950 -1050 -55 -66 -197 -223
-315 -350 -387 -413 -578 -622 -1483 -1628 -914 -1016 -1179 -1312 -1465
-1638 -129 -147 -176 -194 -224 -222 -117 -69 -209 -71 -298 -6 -145 105 -161
369 -37 602 26 49 91 136 175 235 73 86 152 182 175 212 172 226 996 1236
1232 1510 640 743 1015 1162 1295 1445 444 450 654 684 951 1055 231 290 632
768 909 1085 129 149 292 335 360 415 69 80 192 219 275 310 308 338 452 508
704 828 l143 182 62 0 61 0 85 -112z m-20709 -585 c335 -340 409 -471 409
-721 0 -295 -128 -611 -328 -811 -75 -75 -189 -168 -196 -160 -2 2 -12 56 -21
119 -36 245 -94 424 -232 712 -63 131 -86 190 -90 231 -6 58 5 267 37 730 11
152 20 280 20 283 0 11 229 -208 401 -383z m4514 -471 c60 -138 92 -230 125
-363 42 -172 53 -286 47 -477 -7 -231 -43 -399 -177 -820 -45 -141 -92 -362
-114 -540 -19 -144 -20 -339 -5 -537 20 -274 62 -414 201 -686 127 -246 151
-362 108 -517 -51 -184 -194 -490 -317 -677 -172 -261 -408 -498 -560 -562
-92 -38 -521 23 -854 123 -353 105 -400 145 -573 492 -108 216 -286 828 -286
984 0 32 8 68 21 95 25 53 152 172 319 303 295 229 434 379 527 565 84 168 96
254 98 725 1 368 3 402 24 499 66 306 221 569 554 940 197 218 515 488 678
574 l91 48 25 -36 c14 -20 44 -80 68 -133z m16473 -404 c2 -506 6 -608 37
-1178 52 -956 67 -2119 34 -2635 -18 -272 -39 -355 -174 -680 -156 -374 -461
-1015 -652 -1370 -39 -71 -158 -297 -265 -500 -209 -396 -227 -427 -364 -635
l-89 -135 0 220 c-1 207 -3 237 -44 505 -49 331 -45 296 -65 520 -33 362 -49
973 -28 1082 5 26 34 68 103 150 161 188 315 393 444 588 353 535 471 850 526
1403 15 154 7 497 -16 642 -37 242 -140 556 -237 729 -44 78 -203 281 -295
376 l-63 64 24 26 c70 76 524 600 597 690 47 58 150 188 229 290 137 177 290
370 294 370 1 0 3 -235 4 -522z m-19750 -128 c162 -21 323 -78 420 -149 116
-86 161 -280 107 -460 -29 -96 -162 -210 -360 -309 -103 -51 -178 -76 -329
-107 -151 -32 -230 -57 -326 -105 -182 -92 -320 -217 -450 -410 -130 -194
-254 -299 -364 -308 -48 -4 -56 -1 -115 39 -69 47 -92 74 -115 130 l-15 37 51
63 c60 75 99 154 130 264 21 74 23 101 22 336 l0 257 56 27 c147 72 324 222
404 344 55 83 106 185 140 280 15 41 29 78 33 84 8 12 594 1 711 -13z m18755
-1000 c79 -98 144 -236 202 -429 71 -233 88 -371 89 -686 0 -289 -10 -386 -69
-682 -59 -296 -136 -494 -302 -784 l-67 -116 -85 -14 c-47 -7 -151 -13 -231
-12 -121 1 -161 5 -241 26 -225 59 -401 195 -566 437 -88 131 -236 388 -359
624 l-92 179 75 90 c113 132 315 355 727 802 203 220 446 484 539 587 l170
187 75 -67 c41 -37 101 -101 135 -142z m-17883 145 c162 -54 390 -234 494
-391 63 -96 107 -299 109 -504 2 -125 2 -125 -33 -190 -59 -109 -155 -185
-302 -238 -62 -23 -89 -27 -178 -27 -69 1 -124 6 -160 17 -51 16 -56 21 -74
65 -32 78 -92 158 -169 224 -96 83 -154 157 -229 292 -42 75 -81 131 -120 169
-53 52 -58 61 -58 101 0 52 24 138 53 188 14 25 40 46 86 70 108 55 202 123
279 202 l74 74 76 -14 c43 -8 111 -25 152 -38z m-1050 -590 c90 -24 195 -82
248 -139 26 -28 70 -90 96 -138 71 -127 167 -249 242 -309 125 -99 170 -205
161 -374 -9 -160 -51 -285 -122 -364 -21 -23 -75 -70 -119 -105 -45 -35 -94
-80 -109 -100 -47 -61 -85 -154 -103 -253 -19 -108 -40 -141 -94 -149 -101
-16 -176 44 -251 201 -80 167 -135 207 -302 219 -43 3 -90 12 -105 20 -16 8
-59 48 -96 90 -93 105 -137 125 -298 136 -67 5 -160 10 -205 10 -78 0 -82 1
-107 31 -14 17 -29 42 -32 56 -19 76 34 234 97 287 28 24 67 48 228 140 72 41
195 164 253 251 25 39 74 125 107 192 94 185 159 262 258 298 50 18 184 18
253 0z m9888 -50 c2 -2 10 -106 17 -232 8 -125 20 -286 27 -358 15 -162 14
-909 -1 -1160 -20 -314 -27 -366 -67 -473 -67 -180 -94 -224 -296 -493 -68
-91 -158 -219 -198 -285 -41 -65 -120 -192 -177 -282 -123 -195 -134 -215
-207 -403 -60 -155 -118 -253 -178 -302 l-37 -30 -45 41 c-95 87 -225 133
-464 162 -194 24 -240 33 -307 62 -166 70 -272 196 -427 508 -81 162 -153 264
-221 310 -27 18 -43 40 -58 80 -50 134 -49 208 6 318 41 82 135 176 215 217
80 41 213 65 360 65 283 1 319 17 530 233 85 88 218 215 296 283 244 212 268
249 269 399 0 55 -6 154 -14 220 -16 144 -9 249 24 374 27 101 47 143 113 246
148 231 501 475 729 504 59 7 100 6 111 -4z m-14059 -64 c30 -16 130 -139 174
-212 20 -35 65 -129 98 -209 120 -283 178 -381 298 -500 165 -163 357 -259
588 -296 133 -20 375 -15 468 11 93 26 222 90 304 152 84 62 351 327 436 432
52 65 58 69 131 91 149 44 224 -5 224 -147 0 -181 -115 -389 -402 -730 -161
-192 -210 -260 -247 -347 -25 -59 -26 -68 -25 -241 1 -189 10 -244 45 -289 37
-48 72 -57 228 -66 162 -9 223 -25 317 -81 68 -41 140 -117 174 -185 22 -44
25 -60 24 -159 -2 -141 -33 -266 -108 -421 -99 -206 -233 -391 -421 -579 -251
-253 -490 -416 -684 -466 -176 -47 -379 6 -610 159 -97 64 -160 116 -412 341
-224 200 -350 328 -435 441 -173 230 -314 655 -315 950 -1 97 14 158 42 176
35 21 165 -15 311 -86 66 -32 68 -34 84 -89 26 -88 54 -238 55 -294 l2 -52 9
65 c17 119 -4 317 -53 520 -36 146 -164 519 -227 660 -33 74 -103 228 -155
341 -141 302 -176 417 -197 654 -8 94 -8 163 -1 245 12 136 24 183 54 211 20
19 30 21 114 16 50 -3 100 -10 112 -16z m17249 -1067 l34 -5 -7 -72 c-41 -459
-142 -656 -719 -1407 -384 -500 -518 -661 -702 -840 -132 -128 -170 -155 -246
-176 -89 -23 -404 -39 -503 -25 -317 44 -537 231 -725 616 -115 235 -157 404
-140 558 20 174 57 232 177 277 152 58 270 60 645 14 268 -32 400 -34 483 -5
125 45 214 122 384 336 152 190 430 465 557 548 109 72 223 129 297 147 155
40 341 53 465 34z m-14168 -144 c36 -6 121 -20 190 -31 148 -24 184 -39 227
-99 63 -87 128 -153 168 -171 22 -10 81 -25 130 -33 103 -18 130 -38 160 -122
73 -205 193 -323 346 -341 27 -3 49 -9 49 -12 0 -3 -25 -86 -55 -184 -30 -98
-82 -278 -116 -400 -78 -286 -142 -484 -187 -572 -99 -198 -239 -363 -691
-816 -353 -353 -495 -481 -745 -673 -358 -276 -446 -316 -691 -316 -322 0
-468 62 -691 293 -189 195 -328 366 -440 542 -22 34 -34 41 96 -55 159 -118
314 -197 456 -231 127 -32 299 -32 408 -1 183 52 408 197 651 419 155 141 239
232 340 368 194 260 303 494 341 735 39 244 -9 406 -162 555 -138 134 -317
204 -521 205 l-92 0 -7 48 c-4 26 -8 92 -8 147 -1 97 0 104 36 175 45 89 257
375 329 442 62 59 124 96 209 126 71 24 144 25 270 2z m6174 -345 c326 -66
614 -221 846 -454 144 -145 183 -211 182 -310 0 -42 -8 -87 -21 -122 l-21 -56
-101 -26 c-163 -43 -297 -113 -421 -219 -66 -56 -188 -116 -299 -147 -111 -31
-143 -28 -192 15 -83 76 -208 109 -388 102 -54 -1 -99 0 -99 3 0 3 8 14 19 23
36 33 73 133 78 217 13 177 -71 538 -168 731 -16 32 -29 66 -29 76 0 32 60
111 104 137 105 61 300 73 510 30z m-899 -40 c105 -29 173 -123 239 -334 46
-147 102 -399 117 -526 11 -88 10 -107 -5 -159 -20 -67 -71 -125 -171 -193
-133 -90 -200 -107 -299 -79 -85 25 -127 68 -149 152 -10 38 -33 103 -52 144
-19 41 -35 84 -35 96 0 12 -9 63 -20 115 -29 139 -23 305 19 462 17 65 31 141
31 170 0 62 33 115 94 153 37 22 48 24 111 18 39 -3 93 -12 120 -19z m-3207
-481 c80 -268 224 -599 328 -755 96 -145 215 -220 489 -308 212 -68 541 -136
775 -160 179 -19 303 19 455 139 215 170 436 443 586 724 l52 99 22 -27 c116
-146 181 -357 172 -561 -6 -133 -20 -178 -97 -293 -55 -84 -89 -124 -288 -344
-119 -131 -178 -220 -220 -331 -42 -114 -51 -201 -27 -282 32 -113 67 -163
228 -333 172 -182 230 -268 280 -409 27 -77 31 -105 35 -222 5 -149 -5 -230
-48 -398 -48 -186 -100 -299 -221 -479 -167 -249 -462 -472 -749 -567 -366
-121 -733 -141 -1050 -56 -154 41 -418 132 -506 175 -469 228 -751 676 -825
1307 -16 143 -6 404 21 532 26 124 88 312 130 396 86 171 226 331 393 449 111
78 140 143 101 227 -9 19 -56 69 -103 111 -145 130 -244 235 -278 292 -18 30
-44 96 -59 145 -23 80 -26 107 -27 240 -1 287 58 466 202 619 61 64 180 158
195 153 6 -2 21 -39 34 -83z m5712 -517 c66 -24 160 -114 203 -194 l28 -52
-38 -35 c-51 -46 -99 -129 -134 -230 -24 -68 -32 -114 -40 -228 -15 -224 -31
-256 -129 -277 -31 -6 -85 -27 -122 -46 -85 -43 -151 -55 -307 -55 -140 0
-220 14 -357 61 -166 57 -274 152 -324 286 -39 104 -19 297 44 421 63 124 270
239 561 311 285 71 492 83 615 38z m3215 -206 c22 -10 63 -37 91 -59 44 -36
55 -52 79 -119 44 -122 129 -297 190 -389 128 -192 319 -329 551 -396 70 -20
101 -23 269 -23 105 0 232 3 283 7 l92 8 -16 -31 c-27 -53 -44 -110 -65 -213
-11 -54 -29 -116 -39 -136 -54 -106 -162 -140 -565 -180 -311 -32 -331 -37
-396 -107 -59 -64 -88 -108 -171 -266 -140 -268 -282 -462 -477 -658 -169
-168 -312 -273 -527 -385 -259 -136 -317 -194 -330 -336 -13 -135 -129 -248
-301 -292 -173 -45 -378 14 -562 161 -210 167 -291 361 -308 728 -5 112 -2
143 16 220 34 140 125 282 233 362 44 32 62 38 147 50 213 29 333 85 466 218
166 165 234 298 243 472 3 69 0 104 -12 140 -16 45 -16 49 0 58 105 63 172
147 273 342 39 76 100 176 136 223 36 47 120 157 186 245 196 263 230 303 265
324 87 52 180 64 249 32z m-5117 -37 c151 -38 209 -83 292 -223 54 -94 135
-283 161 -379 27 -97 22 -175 -16 -256 -21 -45 -60 -91 -169 -200 -214 -213
-270 -308 -381 -646 -77 -236 -132 -470 -145 -609 -5 -68 -12 -126 -15 -130
-2 -4 -33 -22 -69 -40 -46 -24 -83 -35 -130 -38 -94 -8 -150 22 -259 137 l-84
89 -6 77 c-9 98 -29 176 -76 284 -56 131 -118 215 -281 385 -82 85 -161 174
-175 199 -35 59 -41 125 -20 205 30 117 84 204 258 418 179 219 256 363 279
521 l10 77 78 -3 c125 -6 314 53 450 140 43 28 49 29 125 23 43 -4 122 -17
173 -31z m2382 -101 c71 -35 155 -121 215 -219 94 -154 175 -270 231 -332 58
-65 173 -157 254 -203 72 -42 219 -96 362 -134 223 -58 295 -88 374 -157 55
-48 68 -81 61 -157 -12 -139 -91 -282 -234 -424 -60 -61 -97 -88 -159 -118
-102 -49 -235 -84 -381 -98 -117 -12 -173 -27 -229 -62 l-33 -20 6 49 c7 63
-11 168 -41 235 -44 99 -319 409 -483 544 -98 80 -106 90 -153 183 -38 72 -68
115 -115 161 -59 59 -64 68 -76 128 -24 127 3 294 68 426 64 131 111 182 191
211 55 19 82 17 142 -13z m-410 -768 c48 -25 100 -75 122 -119 38 -75 96 -152
185 -247 153 -163 384 -481 408 -563 61 -206 -69 -470 -340 -687 -160 -129
-290 -205 -488 -286 -221 -90 -317 -151 -377 -238 -49 -71 -69 -141 -78 -270
-8 -105 -11 -120 -38 -158 -33 -47 -113 -99 -189 -124 -27 -9 -98 -18 -157
-20 -89 -4 -119 -2 -175 16 -162 49 -410 259 -642 545 -98 120 -145 192 -191
289 -62 130 -73 188 -68 357 5 131 10 162 51 320 125 483 204 650 401 845 208
206 344 238 615 145 137 -47 209 -56 307 -41 138 21 170 36 371 173 54 36 114
71 133 77 43 13 110 6 150 -14z m4825 -327 c27 -18 98 -82 159 -143 100 -101
166 -173 450 -489 324 -361 658 -705 1031 -1061 618 -590 858 -843 913 -964
21 -45 24 -64 20 -120 -3 -36 -12 -80 -21 -98 -19 -36 -37 -43 -185 -73 -143
-29 -210 -55 -254 -101 -51 -54 -66 -112 -84 -329 -25 -306 -50 -387 -158
-497 -96 -97 -133 -96 -313 11 -231 136 -484 338 -742 591 -320 314 -641 664
-641 700 0 20 113 113 193 158 82 46 124 82 146 124 18 35 13 104 -13 158 -56
121 -398 493 -636 692 -130 109 -543 423 -759 577 -67 49 -156 115 -197 148
l-74 59 27 47 c70 122 56 115 323 162 388 68 533 122 609 226 33 45 61 130 61
185 0 75 63 91 145 37z m-4145 -1718 c30 -15 81 -54 112 -85 48 -48 60 -69 78
-128 30 -97 68 -170 132 -251 l54 -69 -18 -151 c-25 -208 -41 -322 -98 -681
-104 -652 -124 -892 -117 -1370 9 -516 63 -1074 159 -1630 11 -66 22 -171 24
-233 5 -145 30 -268 84 -407 122 -316 161 -455 200 -712 26 -175 53 -423 47
-430 -3 -3 -26 9 -51 26 -80 55 -186 101 -234 101 -92 0 -151 -59 -180 -178
l-17 -72 -1112 0 c-612 0 -1113 3 -1113 6 0 14 124 182 290 394 305 389 319
416 341 678 13 147 2 399 -28 657 -9 77 -17 212 -17 300 -1 185 16 271 83 403
84 167 333 511 691 957 290 361 332 441 361 687 25 211 -3 828 -66 1493 l-33
350 25 70 c14 38 37 90 51 115 39 68 121 150 177 177 59 28 92 25 175 -17z
m2287 -1240 c83 -102 380 -540 518 -765 154 -250 522 -887 565 -980 117 -248
248 -631 410 -1205 53 -187 64 -239 81 -399 11 -101 18 -186 14 -189 -9 -9
-168 103 -325 229 -504 404 -884 877 -1160 1444 -228 469 -343 863 -443 1520
l-43 280 8 195 c4 107 10 206 14 219 5 23 16 14 140 -110 75 -74 174 -181 221
-239z m2264 -1156 c40 -20 85 -77 107 -136 11 -29 48 -163 81 -296 71 -280 90
-336 140 -412 20 -30 117 -136 217 -236 99 -100 199 -209 222 -244 91 -136
126 -324 167 -900 35 -495 75 -655 224 -901 114 -190 267 -390 544 -716 l28
-33 -439 0 -439 0 -16 43 c-29 76 -75 247 -148 552 -141 590 -228 829 -546
1505 -241 510 -307 674 -351 865 -48 207 -51 379 -11 625 22 133 54 219 104
278 24 29 32 32 59 26 17 -3 43 -12 57 -20z m470 -3140 c32 -5 38 -10 49 -47
32 -108 158 -455 205 -564 l53 -123 -455 0 c-430 0 -455 1 -448 18 28 68 36
132 40 351 4 242 16 323 51 352 9 7 37 16 63 20 48 8 379 2 442 -7z m-18599
-2466 c147 -651 405 -1793 573 -2538 168 -745 313 -1386 322 -1425 l16 -70
154 665 c84 366 354 1531 599 2590 245 1059 448 1933 450 1943 5 16 80 17
1391 17 l1385 0 -6 -25 c-6 -24 -258 -927 -1752 -6275 -399 -1427 -1054 -3772
-1455 -5210 -401 -1438 -732 -2622 -735 -2630 -3 -8 -803 2776 -1778 6188
l-1772 6203 -909 845 c-501 465 -923 859 -940 875 l-30 29 2110 0 2111 0 266
-1182z m15858 -3241 l0 -4424 1896 -6 c1043 -3 1898 -8 1900 -10 3 -2 -316
-538 -708 -1191 l-713 -1186 -2465 3 -2465 2 -5 4761 -5 4761 -620 765 -620
765 -3 -1104 -2 -1103 -1595 0 -1595 0 0 -980 0 -980 1540 0 c861 0 1540 -4
1540 -9 0 -4 -504 -544 -1121 -1200 l-1120 -1191 -418 0 -418 0 -6 -482 c-4
-265 -7 -737 -7 -1048 l0 -568 1599 -4 c880 -2 1603 -6 1606 -10 4 -4 4 -540
0 -1192 l-8 -1186 -2873 0 -2874 0 0 2438 c0 1341 -3 3486 -7 4766 l-6 2327
-582 717 c-319 394 -629 776 -688 847 -59 72 -107 133 -107 138 0 4 2464 7
5475 7 l5475 0 0 -4423z m10080 3228 l0 -1195 -1425 0 -1425 0 -2 -5742 -3
-5743 -1277 1335 -1278 1334 0 4408 0 4408 -1410 0 -1410 0 0 1195 0 1195
4115 0 4115 0 0 -1195z"/>
<path d="M38920 30586 c0 -2 7 -7 16 -10 8 -3 12 -2 9 4 -6 10 -25 14 -25 6z"/>
</g>
</svg>
